<svg clip-rule="evenodd" fill-rule="evenodd" height="392" image-rendering="optimizeQuality" shape-rendering="geometricPrecision" text-rendering="geometricPrecision" viewBox="0 0 181236 28413" width="2500" xmlns="http://www.w3.org/2000/svg"><path d="M44002 10752c0 3488-1687 5850-5959 5850h-1349V5495c479-28 928-28 1349-28 4045 0 5959 1912 5959 5285zm-4385 10687c7643 0 12476-3938 12476-10798 0-7537-5170-10236-13600-10236-3260 0-7194 224-10003 561v26885h8204v-6412zm109923-10687c0 3488-1685 5850-5958 5850h-1345V5495c476-28 925-28 1345-28 4045 0 5958 1912 5958 5285zm-4380 10687c7637 0 12472-3938 12472-10798 0-7537-5169-10236-13599-10236-3260 0-7196 224-10005 561v26885h8208v-6412zm23148-13611c0-1462 1463-2138 3821-2138 2586 0 5398 563 7307 1353l-673-5851c-2137-450-4048-787-7531-787-6632 0-11126 2616-11126 8100 0 9446 12815 7535 12815 11922 0 1686-1239 2585-4275 2585-2693 0-6855-899-9327-2136l902 6188c2470 900 5842 1349 8540 1349 6854 0 12475-2251 12475-9001 0-8995-12928-7310-12928-11584zM127848 966h-8204v26885h8204zm-33270 0h-8205v26885h8205zm14274 21484V966h-8204v26885h14837l1235-5401zM80305 966h-8205v10686h-8543V966h-8206v26885h8206V17277h8542v10574h8205zM0 610S4584 0 11214 0c6671 0 11098 610 11098 610v16501c0 6485-5038 11302-11156 11302C4987 28413 0 23531 0 17257z" fill="#215da4"/><path d="M8133 2710H7096v1351H6017V2710H4980v3398h1037V4771h1079v1337h1037zM1492 18452c-30-271-61-828-68-1193 834 433 2084 944 3935 944 4490 0 6517-3364 10936-3364 1817 0 3355 523 4394 1167 45 402 59 805 75 1207-1185-582-2413-929-3932-929-4541 0-6393 3341-10946 3341-1760 0-3223-451-4394-1173zm4845-1915l257-2186c155-1087 297-1366 1214-1512l2591-342v-174l-1663-202 164-1266c42-369 214-537 677-594l1349-182v-98l-1437-187c-414-68-545-241-594-620l-169-1276s995-301 2371-301c5346 0 8523 4042 9299 6998-814-527-2472-1289-4464-1289-4032 0-6079 2568-9595 3231zm4757 10394c-4088 0-7966-2550-9309-7047 1183 747 2881 1295 4521 1295 4270 0 6338-2715 9534-3283l-337 2645c-118 682-306 979-1126 1115l-2623 334v179l2461 312c817 88 1197 359 1284 1163l275 2073c-807 483-2526 1214-4680 1214zm5003-1383l206-1655c135-933 285-1271 1192-1386l1881-243c-953 1540-2013 2467-3279 3284zm3470-3613l-1900-250c-978-114-1222-355-1346-1306l-323-2509s650-110 1390-110c1105 0 2610 355 3309 664-163 1170-381 2120-1130 3511zM1512 16043c153-1336 529-2334 1132-3466l2007 257c380 50 655 130 840 332 177 199 255 318 362 1066l298 2343s-610 106-1370 114c-1317 0-2510-339-3269-646zm1333-3813c709-1171 1762-2332 3210-3208l-239 1810c-54 389-95 578-302 821-176 194-468 270-811 332zm3684-2267l-137-1147c596-337 1343-672 2202-887l-169 1284c-72 405-246 531-677 597zm2057 2137l-1067-156c-504-105-788-457-861-1090l-105-762 1267 179c417 47 566 251 621 697zm3154-6675V2710h-1036v3398h1875l156-683zM9937 2710H8900v3398h1037zm4204 0h-1037v3398h1037zm5113 867c0-184 185-270 483-270 326 0 682 72 923 171l-85-739c-270-57-512-100-952-100-838 0-1406 331-1406 1024 0 1194 1619 952 1619 1507 0 213-156 326-540 326-340 0-866-113-1178-270l114 782c312 114 738 171 1079 171 866 0 1576-285 1576-1138 0-1136-1633-923-1633-1464zm-2926 1720c966 0 1576-497 1576-1364 0-953-653-1294-1718-1294-412 0-909 29-1264 71v3398h1037v-811zm554-1350c0 441-213 739-753 739h-126V3283c60-4 73-4 126-4 511 0 753 242 753 668zM2991 5297c966 0 1577-497 1577-1364 0-953-654-1294-1719-1294-412 0-909 29-1264 71v3398h1037v-811zm554-1350c0 441-213 739-753 739h-124V3283c61-4 71-4 124-4 511 0 753 242 753 668z" fill="#fff"/></svg>